#!OML:ASF F:\VICON\USERDATA\INSTALL\rory3\rory3.ASF
:FULLY-SPECIFIED
:DEGREES
758
root 2.81062 18.4245 -2.54435 3.90499 10.1869 -0.296928
lowerback 15.3034 2.37623 -6.69571
upperback 6.76066 2.17082 -2.21846
thorax -1.53412 1.00807 1.08569
lowerneck 0.467564 -0.79439 -6.77354
upperneck 31.7701 -1.23348 3.87317
head 10.0849 -0.889187 2.48695
rclavicle 1.74931e-014 -1.59028e-015
rhumerus -22.2949 28.784 -89.2804
rradius 61.7938
rwrist 27.7724
rhand -16.3497 -3.18993
rfingers 7.12502
rthumb 9.86279 -32.9389
lclavicle 1.74931e-014 -1.59028e-015
lhumerus -20.6193 -23.4008 87.2681
lradius 98.2455
lwrist 16.7315
lhand -18.6429 36.0323
lfingers 7.12502
lthumb 7.64984 65.874
rfemur -44.4687 -0.358976 7.27384
rtibia 52.1087
rfoot -3.92506 -20.2178
rtoes -6.33305
lfemur -23.8611 -5.20903 -16.6575
ltibia 36.5187
lfoot -13.1865 0.105122
ltoes -8.43507
759
root 2.79939 18.4246 -2.5474 4.37848 10.3751 -0.27035
lowerback 15.6341 2.31493 -6.83887
upperback 6.91598 2.0521 -2.16585
thorax -1.54036 0.943878 1.23334
lowerneck 0.608045 -0.748078 -6.90617
upperneck 32.1451 -1.1956 3.99969
head 10.2008 -0.879922 2.56647
rclavicle -3.26007e-014 3.97569e-014
rhumerus -22.0004 28.7275 -88.7458
rradius 63.104
rwrist 28.3435
rhand -18.1185 -3.29955
rfingers 7.12502
rthumb 8.15596 -33.1221
lclavicle -3.26007e-014 3.97569e-014
lhumerus -20.5896 -22.3922 87.1998
lradius 96.6181
lwrist 14.0688
lhand -18.3507 37.0177
lfingers 7.12502
lthumb 7.93188 66.8489
rfemur -44.7661 -0.0544192 6.9895
rtibia 50.8404
rfoot -3.4629 -20.1676
rtoes -5.96015
lfemur -24.4054 -5.41339 -16.5816
ltibia 36.4034
lfoot -13.0178 0.159161
ltoes -8.29952
760
root 2.78614 18.4279 -2.54867 4.92411 10.5649 -0.318453
lowerback 15.8271 2.35073 -6.78912
upperback 7.07416 2.09936 -2.13905
thorax -1.47663 0.964037 1.22232
lowerneck 0.789822 -0.798358 -6.67402
upperneck 32.343 -1.24562 3.83693
head 10.2439 -0.893513 2.46683
rclavicle 6.87795e-014 -2.38542e-014
rhumerus -21.8201 28.2227 -88.1661
rradius 64.4898
rwrist 28.9361
rhand -19.6962 -3.4485
rfingers 7.12502
rthumb 6.63308 -33.3246
lclavicle 6.87795e-014 -2.38542e-014
lhumerus -20.4691 -21.8134 87.1755
lradius 95.2442
lwrist 11.8211
lhand -17.7799 37.9285
lfingers 7.12502
lthumb 8.48278 67.7382
rfemur -45.1295 0.303979 6.77752
rtibia 49.6099
rfoot -2.89835 -20.2698
rtoes -5.33826
lfemur -25.0439 -5.55655 -16.4062
ltibia 36.3047
lfoot -12.8666 0.179369
ltoes -8.35123
761
root 2.77653 18.4358 -2.54673 5.42738 10.8073 -0.23972
lowerback 16.0191 2.33905 -6.79475
upperback 7.29582 2.08144 -2.11542
thorax -1.34075 0.94832 1.25139
lowerneck 0.919206 -0.836196 -6.59193
upperneck 32.4306 -1.27553 3.72284
head 10.255 -0.908853 2.41064
rclavicle 2.26615e-014 -1.19271e-014
rhumerus -21.5985 27.7997 -87.5695
rradius 65.7936
rwrist 29.4207
rhand -21.0659 -3.85564
rfingers 7.12502
rthumb 5.31072 -33.7691
lclavicle 2.26615e-014 -1.19271e-014
lhumerus -20.3504 -21.1318 87.1954
lradius 94.0479
lwrist 9.85744
lhand -16.8478 38.263
lfingers 7.12502
lthumb 9.38219 68.0342
rfemur -45.3656 0.513406 6.44243
rtibia 48.4019
rfoot -2.06174 -20.3177
rtoes -4.84573
lfemur -25.5696 -5.79237 -16.3762
ltibia 36.2109
lfoot -12.7581 0.1778
ltoes -8.39278
762
root 2.76735 18.4417 -2.54539 5.83124 11.1233 -0.204172
lowerback 16.402 2.22094 -6.76809
upperback 7.50338 1.91338 -2.01991
thorax -1.31058 0.860657 1.3587
lowerneck 1.06281 -0.743033 -6.88159
upperneck 32.4478 -1.15175 3.82231
head 10.2306 -0.87646 2.50797
rclavicle 1.47101e-014 1.90833e-014
rhumerus -21.3567 27.5853 -87.01
rradius 66.9782
rwrist 29.9997
rhand -22.207 -4.20516
rfingers 7.12502
rthumb 4.20887 -34.1433
lclavicle 1.47101e-014 1.90833e-014
lhumerus -20.3412 -20.2577 87.2569
lradius 93.0797
lwrist 8.15592
lhand -16.2292 38.4617
lfingers 7.12502
lthumb 9.97899 68.2052
rfemur -45.4681 0.650341 6.17904
rtibia 47.2263
rfoot -1.11058 -20.4084
rtoes -4.57221
lfemur -26.0032 -6.02198 -16.3068
ltibia 36.1193
lfoot -12.6775 0.139382
ltoes -8.71798
763
root 2.75385 18.4474 -2.54606 6.30098 11.3375 -0.2621
lowerback 16.7415 2.38081 -6.40453
upperback 7.56001 2.1448 -2.18577
thorax -1.42967 0.988769 0.929644
lowerneck 1.79603 -0.935636 -6.26131
upperneck 32.1791 -1.5458 3.97058
head 10.0065 -0.969968 2.41719
rclavicle -1.15295e-014 2.46493e-014
rhumerus -21.6174 26.1423 -86.9309
rradius 68.2663
rwrist 30.6375
rhand -23.0664 -4.14449
rfingers 7.12502
rthumb 3.37902 -34.0975
lclavicle -1.15295e-014 2.46493e-014
lhumerus -20.3934 -20.6783 87.1085
lradius 92.2633
lwrist 7.02943
lhand -16.2972 38.4484
lfingers 7.12502
lthumb 9.91339 68.1949
rfemur -45.6968 0.95764 6.00599
rtibia 46.1147
rfoot -0.132762 -20.57
rtoes -3.6549
lfemur -26.54 -6.10206 -16.1143
ltibia 36.0125
lfoot -12.543 0.0228069
ltoes -8.25455
764
root 2.73901 18.4505 -2.54324 6.86726 11.4817 -0.279473
lowerback 16.8695 2.31775 -6.47458
upperback 7.72 2.05478 -2.06057
thorax -1.32569 0.935937 1.11596
lowerneck 2.09822 -0.843816 -6.53922
upperneck 31.9913 -1.42405 4.0199
head 9.87581 -0.941234 2.48966
rclavicle 1.35174e-014 9.54166e-015
rhumerus -21.5735 25.9259 -86.4926
rradius 69.6262
rwrist 30.9295
rhand -23.9295 -4.13422
rfingers 7.12502
rthumb 2.54546 -34.0988
lclavicle 1.35174e-014 9.54166e-015
lhumerus -20.4506 -19.99 87.2306
lradius 91.7648
lwrist 5.97781
lhand -16.7218 38.5164
lfingers 7.12502
lthumb 9.50373 68.2821
rfemur -46.0473 1.38051 5.74846
rtibia 45.0806
rfoot 0.753929 -20.7612
rtoes -2.68088
lfemur -27.1647 -6.10459 -15.9652
ltibia 35.9126
lfoot -12.4093 -0.0756173
ltoes -7.90846
765
root 2.72468 18.4571 -2.53659 7.39158 11.7405 -0.267611
lowerback 16.9909 2.31196 -6.41415
upperback 7.86923 2.05742 -2.01093
thorax -1.22978 0.933911 1.13288
lowerneck 2.38186 -0.86628 -6.41226
upperneck 31.9247 -1.44645 3.91817
head 9.79879 -0.945929 2.42849
rclavicle -1.07344e-014 2.38542e-014
rhumerus -21.6404 25.3051 -86.1396
rradius 70.8829
rwrist 31.218
rhand -24.9632 -4.3281
rfingers 7.12502
rthumb 1.54715 -34.3022
lclavicle -1.07344e-014 2.38542e-014
lhumerus -20.5569 -19.7017 87.4002
lradius 91.3925
lwrist 4.9328
lhand -16.5468 38.8533
lfingers 7.12502
lthumb 9.67265 68.6112
rfemur -46.2788 1.69626 5.47474
rtibia 44.1306
rfoot 1.38202 -21.0802
rtoes -2.5553
lfemur -27.7352 -6.10842 -15.8542
ltibia 35.82
lfoot -12.3065 -0.300718
ltoes -7.80542
766
root 2.71216 18.4605 -2.5313 7.99143 11.9972 -0.174223
lowerback 17.1934 2.29709 -6.36024
upperback 8.05248 2.04197 -1.98526
thorax -1.13739 0.923073 1.12958
lowerneck 2.16815 -0.916741 -6.31267
upperneck 32.0571 -1.48479 3.84057
head 9.88939 -0.956849 2.38302
rclavicle 2.98177e-014 -3.26007e-014
rhumerus -21.4644 24.6504 -85.6903
rradius 71.9899
rwrist 31.5765
rhand -26.3318 -4.50652
rfingers 7.12502
rthumb 0.225301 -34.4861
lclavicle 2.98177e-014 -3.26007e-014
lhumerus -20.352 -19.5851 87.457
lradius 90.8766
lwrist 4.2221
lhand -16.3624 38.8627
lfingers 7.12502
lthumb 9.85056 68.6123
rfemur -46.5795 1.90638 5.12621
rtibia 43.2457
rfoot 2.40679 -21.4339
rtoes -2.67506
lfemur -28.3744 -6.16231 -15.8246
ltibia 35.73
lfoot -12.2015 -0.474795
ltoes -7.96211
767
root 2.69451 18.4569 -2.52939 8.67208 12.2925 -0.0701457
lowerback 17.4783 2.3234 -6.22392
upperback 8.0054 2.0697 -2.03308
thorax -1.33291 0.946908 0.987997
lowerneck 2.56705 -0.992559 -6.07263
upperneck 31.9937 -1.62268 3.85501
head 9.79724 -0.990789 2.33587
rclavicle 5.56597e-015 -3.49861e-014
rhumerus -21.9425 23.6639 -85.6551
rradius 73.1778
rwrist 31.9681
rhand -27.5351 -4.76347
rfingers 7.12502
rthumb -0.936903 -34.7412
lclavicle 5.56597e-015 -3.49861e-014
lhumerus -20.6642 -19.969 87.4964
lradius 90.4925
lwrist 3.90191
lhand -16.3769 38.5242
lfingers 7.12502
lthumb 9.83657 68.2744
rfemur -46.9792 2.14043 4.72526
rtibia 42.4216
rfoot 3.59288 -21.9457
rtoes -0.94023
lfemur -29.1389 -6.24946 -15.76
ltibia 35.6483
lfoot -12.0331 -0.69109
ltoes -7.87892
768
root 2.67242 18.4563 -2.52558 9.26723 12.6898 0.010937
lowerback 17.7704 2.17831 -6.23496
upperback 8.12609 1.86773 -1.91573
thorax -1.34618 0.844115 1.14965
lowerneck 2.78861 -0.858743 -6.34166
upperneck 31.7584 -1.42855 3.85776
head 9.66046 -0.930478 2.3941
rclavicle 2.54444e-014 -3.18055e-015
rhumerus -22.078 23.2964 -85.5058
rradius 74.2679
rwrist 32.1552
rhand -28.9016 -4.9124
rfingers 7.12502
rthumb -2.25666 -34.8802
lclavicle 2.54444e-014 -3.18055e-015
lhumerus -20.8041 -19.6966 87.5986
lradius 90.2393
lwrist 3.68526
lhand -15.8354 38.4467
lfingers 7.12502
lthumb 10.3589 68.1715
rfemur -47.2019 2.39077 4.35283
rtibia 41.6353
rfoot 4.44294 -22.4775
rtoes 1.16209
lfemur -29.8481 -6.35658 -15.6615
ltibia 35.6008
lfoot -11.8688 -1.00795
ltoes -7.50063
769
root 2.64932 18.4537 -2.51568 9.81828 12.9343 0.167444
lowerback 18.0539 2.25535 -6.17929
upperback 8.23914 1.95969 -1.96633
thorax -1.374 0.892073 1.04094
lowerneck 3.12111 -0.933196 -6.11263
upperneck 31.4627 -1.56977 3.91393
head 9.49452 -0.961577 2.35981
rclavicle -1.98785e-014 4.77083e-015
rhumerus -22.467 22.2573 -85.6149
rradius 75.293
rwrist 32.2978
rhand -30.2592 -4.98813
rfingers 7.12502
rthumb -3.56775 -34.938
lclavicle -1.98785e-014 4.77083e-015
lhumerus -20.8705 -20.0705 87.6285
lradius 90.0424
lwrist 3.717
lhand -14.71 38.3979
lfingers 7.12502
lthumb 11.4445 68.0655
rfemur -47.3686 2.75857 3.91224
rtibia 40.881
rfoot 5.10477 -22.8821
rtoes 2.32739
lfemur -30.4473 -6.36249 -15.6709
ltibia 35.5801
lfoot -11.7583 -1.25884
ltoes -7.21852
770
root 2.62596 18.4475 -2.50157 10.4095 13.0475 0.207796
lowerback 18.2279 2.31838 -6.14462
upperback 8.33927 2.04054 -1.91051
thorax -1.36223 0.930607 1.06125
lowerneck 3.34897 -0.951165 -6.15726
upperneck 31.2508 -1.61891 4.00021
head 9.37811 -0.978952 2.39207
rclavicle 1.70955e-014 4.45278e-014
rhumerus -22.7699 21.5513 -85.6259
rradius 76.1343
rwrist 32.3994
rhand -31.427 -5.02727
rfingers 7.12502
rthumb -4.69549 -34.9552
lclavicle 1.70955e-014 4.45278e-014
lhumerus -20.9224 -20.2283 87.7651
lradius 89.8955
lwrist 3.73057
lhand -14.0617 37.7588
lfingers 7.12502
lthumb 12.0696 67.3908
rfemur -47.6095 3.24212 3.58866
rtibia 40.1409
rfoot 5.61731 -23.2776
rtoes 2.38679
lfemur -31.0969 -6.2837 -15.5512
ltibia 35.5683
lfoot -11.6717 -1.44493
ltoes -6.93351
771
root 2.60378 18.4451 -2.48849 10.9869 13.2403 0.155324
lowerback 18.3504 2.32897 -5.9413
upperback 8.4666 2.08775 -1.82374
thorax -1.29026 0.954478 1.02834
lowerneck 3.4888 -0.964615 -6.30199
upperneck 31.1249 -1.65838 4.11576
head 9.31082 -1.00014 2.45429
rclavicle -8.74653e-015 2.0276e-014
rhumerus -22.9748 20.8451 -85.6571
rradius 76.7015
rwrist 32.8369
rhand -32.7665 -5.16952
rfingers 7.12502
rthumb -5.98878 -35.0649
lclavicle -8.74653e-015 2.0276e-014
lhumerus -21.013 -20.4078 87.9224
lradius 89.863
lwrist 3.8536
lhand -13.7275 37.19
lfingers 7.12502
lthumb 12.3918 66.8027
rfemur -47.8096 3.65269 3.36581
rtibia 39.4442
rfoot 5.99359 -23.7894
rtoes 1.64884
lfemur -31.7665 -6.28479 -15.3169
ltibia 35.5644
lfoot -11.6194 -1.60484
ltoes -6.96044
